# xmcd
#
# Track frame offsets:
# 150
# 22553
# 38737
# 57136
# 74060
# 90685
# 106267
# 116557
# 129149
# 147962
# 160475
# 176832
# 191384
# 205569
# 230372
# 250828
# 280651
# 294321
#
# Disc length: 4058 seconds
#
# Revision: 0
# Processed by: cddbd v1.4PL0 Copyright (c) Steve Scherf et al.
# Submitted via: Audion 3.0.2 (http://www.panic.com/audion/)
#
DISCID=f10fd812
DTITLE=vyber - MILO
DYEAR=1900
DGENRE=
TTITLE0=Lil'Malcolm/
TTITLE1=Lil'Charlie/
TTITLE2=Lil'Charlie/
TTITLE3=Lil'Ed/
TTITLE4=W.C. Clark/
TTITLE5=W.C. Clark/
TTITLE6=Rolling Stones/
TTITLE7=Rolling Stones/
TTITLE8=Rolling Stones/
TTITLE9=Rolling Stones/
TTITLE10=Rolling Stones/
TTITLE11=B.B.King/
TTITLE12=B.B.King/
TTITLE13=B.B.King/
TTITLE14=J.Wells/
TTITLE15=J.Wells/
TTITLE16=Stray Cats/
TTITLE17=Stray Cats/
EXTD=
EXTT0=
EXTT1=
EXTT2=
EXTT3=
EXTT4=
EXTT5=
EXTT6=
EXTT7=
EXTT8=
EXTT9=
EXTT10=
EXTT11=
EXTT12=
EXTT13=
EXTT14=
EXTT15=
EXTT16=
EXTT17=
PLAYORDER=
